<?xml version="1.0" encoding="UTF-8" standalone="no"?>
<!DOCTYPE svg PUBLIC "-//W3C//DTD SVG 1.1//EN" "http://www.w3.org/Graphics/SVG/1.1/DTD/svg11.dtd">
<svg width="100%" height="100%" viewBox="0 0 720 412" version="1.1" xmlns="http://www.w3.org/2000/svg" xmlns:xlink="http://www.w3.org/1999/xlink" xml:space="preserve" xmlns:serif="http://www.serif.com/" style="fill-rule:evenodd;clip-rule:evenodd;stroke-linejoin:round;stroke-miterlimit:2;">
    <g transform="matrix(1,0,0,1,-600.005,-334.289)">
        <g id="Marker" transform="matrix(4.62023,0,0,4.62023,-3301.69,-1671.19)">
            <g transform="matrix(-1.10485,-1.35165e-16,1.27441e-16,-1.06177,1678.63,979.58)">
                <path d="M680.517,434.601C681.513,433.417 682.951,432.738 684.462,432.738C685.974,432.738 687.412,433.417 688.407,434.601C699.723,448.058 732.436,486.961 747.378,504.73C748.732,506.341 749.056,508.627 748.206,510.576C747.356,512.525 745.49,513.777 743.433,513.777L625.491,513.777C623.435,513.777 621.568,512.525 620.718,510.576C619.868,508.627 620.192,506.341 621.546,504.73C636.489,486.961 669.201,448.058 680.517,434.601Z" style="fill:rgb(250,255,255);"/>
            </g>
            <g transform="matrix(-0.80416,-9.83789e-17,9.27573e-17,-0.772806,1472.81,840.233)">
                <path d="M682.636,432.08C683.097,431.533 683.763,431.218 684.462,431.218C685.162,431.218 685.827,431.533 686.288,432.08C695.699,443.273 738.784,494.51 751.464,509.59C752.091,510.335 752.241,511.393 751.848,512.295C751.454,513.197 750.591,513.777 749.639,513.777L619.286,513.777C618.334,513.777 617.47,513.197 617.076,512.295C616.683,511.393 616.833,510.335 617.46,509.59C630.14,494.51 673.225,443.273 682.636,432.08Z" style="fill:rgb(40,192,116);"/>
            </g>
        </g>
    </g>
</svg>
